<svg width="14" height="15" viewBox="0 0 14 15" fill="none" xmlns="http://www.w3.org/2000/svg">
<path fill-rule="evenodd" clip-rule="evenodd" d="M7.15779 13.1327C7.88741 13.1327 8.60988 12.989 9.28396 12.7098C9.95804 12.4306 10.5705 12.0213 11.0864 11.5054C11.6024 10.9895 12.0116 10.377 12.2908 9.70291C12.57 9.02883 12.7137 8.30636 12.7137 7.57674C12.7137 6.84712 12.57 6.12465 12.2908 5.45057C12.0116 4.77649 11.6024 4.16401 11.0864 3.64809C10.5705 3.13217 9.95804 2.72292 9.28396 2.44371C8.60988 2.1645 7.88741 2.02079 7.15779 2.02079C5.68426 2.02079 4.27109 2.60615 3.22914 3.64809C2.1872 4.69003 1.60184 6.10321 1.60184 7.57674C1.60184 9.05027 2.1872 10.4634 3.22914 11.5054C4.27109 12.5473 5.68426 13.1327 7.15779 13.1327ZM7.15779 14.3673C10.9081 14.3673 13.9484 11.327 13.9484 7.57674C13.9484 3.82647 10.9081 0.786133 7.15779 0.786133C3.40753 0.786133 0.367188 3.82647 0.367188 7.57674C0.367188 11.327 3.40753 14.3673 7.15779 14.3673Z" fill="black"/>
<path d="M9.62584 7.57537L5.92188 10.2484V4.90234L9.62584 7.57537Z" fill="black"/>
</svg>
