<svg width="136" height="28" viewBox="0 0 136 28" fill="none" xmlns="http://www.w3.org/2000/svg">
<path d="M54.5226 5.14641C55.7922 5.14641 56.7443 4.12624 56.7443 2.9247C56.7443 1.72317 55.7242 0.702993 54.5226 0.702993C53.2531 0.702993 52.3009 1.72317 52.3009 2.9247C52.3009 4.12624 53.2531 5.14641 54.5226 5.14641ZM10.0431 21.4692V21.0838C7.82141 20.6077 7.11863 17.0484 7.11863 11.5622C7.11863 5.78119 8.86426 2.67533 11.4034 2.04056V1.65516C4.51152 2.04055 9.50331e-05 5.6905 9.50331e-05 11.5622C-0.0225755 17.2071 4.01277 21.1518 10.0431 21.4692ZM10.8366 21.4692C14.4865 21.4011 17.0936 20.7664 18.7713 20.0409V12.741H12.4915V20.585C12.1061 20.7437 11.3807 20.9704 10.9046 21.0611V21.4465C10.9273 21.4692 10.8366 21.4692 10.8366 21.4692ZM18.2952 6.34795V2.3126C16.9576 1.9272 14.8039 1.67783 12.5822 1.67783V2.06322C14.8719 3.17408 16.5496 4.44363 18.2952 6.34795ZM27.1593 21.4011V21.0838C26.9326 21.0158 26.6153 20.7664 26.3659 20.5397C25.6631 19.6782 25.5724 18.0006 25.5724 13.8745C25.5724 9.8392 25.7311 8.09357 26.3659 7.30011C26.5246 7.0734 26.842 6.82403 27.1593 6.75601V6.43863C22.8746 6.75602 19.3154 9.52181 19.3154 13.8972C19.406 18.318 22.8746 21.0838 27.1593 21.4011ZM27.9528 21.4011C32.2375 21.0838 35.7288 18.318 35.7288 13.8745C35.7288 9.52181 32.2375 6.73334 27.9528 6.41596V6.73334C28.1795 6.80135 28.4969 6.96005 28.7463 7.27743C29.3811 8.13891 29.5397 9.81653 29.5397 13.8519C29.5397 17.8872 29.3811 19.6329 28.7463 20.517C28.5876 20.7437 28.2022 20.9931 27.9528 21.0611V21.4011ZM36.4316 21.1518H42.3712V0.13623L36.4316 0.680328C36.4316 0.702998 36.4316 21.1518 36.4316 21.1518Z" fill="#878889"/>
<path d="M50.7815 21.1516V8.70547H53.638V6.73313H50.7815V3.17387C50.7815 1.36023 52.119 0.63477 53.2299 0.476077V0.158691C49.3532 0.385396 44.7511 1.26955 44.7511 5.39558V6.73313H42.9375V8.70547H44.7511V21.1516H50.7815V21.1516Z" fill="#878889"/>
<path d="M80.0269 6.03034C81.6818 6.03034 83.0421 4.69279 83.0421 3.01517C83.0421 1.33756 81.7045 0 80.0269 0C78.3493 0 77.0117 1.33756 77.0117 3.01517C77.0117 4.69279 78.3719 6.03034 80.0269 6.03034Z" fill="#878889"/>
<path d="M90.8859 27.8167V27.59C93.1756 27.3633 95.6467 26.4791 95.6467 24.5748C95.6467 23.4639 94.8532 23.0785 93.6744 23.0785H87.644C85.3543 23.0785 83.6767 21.9677 83.6767 19.4286C83.6767 17.3656 85.4903 16.2547 86.8505 15.62L87.0092 15.7786C86.7825 15.9373 86.5332 16.164 86.5332 16.6401C86.5332 17.1842 86.9186 17.4336 87.4853 17.4336H94.0598C97.3923 17.4336 99.2966 18.7031 99.2966 22.0357C99.2966 25.1189 95.7374 27.4993 90.8859 27.8167ZM90.0244 27.8167C85.4223 27.8167 83.2006 27.0232 83.2006 25.4363C83.2006 24.2574 84.5382 23.6226 87.0772 23.4639L87.1453 23.6226C86.8279 23.8493 86.3518 24.4161 86.3518 25.4363C86.3518 26.9325 88.8229 27.4313 90.8859 27.59V27.8167H90.0244ZM90.9766 15.9373V15.7106C91.5207 15.5519 91.9287 14.2144 91.9287 11.2672C91.9287 8.25204 91.4527 6.8238 90.9766 6.75579V6.4384C93.6744 6.5971 97.2336 7.93466 97.2336 11.1992C97.2336 14.4638 93.6744 15.8467 90.9766 15.9373ZM90.2738 15.9373C87.576 15.7786 83.9261 14.4411 83.9261 11.2672C83.9261 8.09335 87.576 6.59709 90.2738 6.50641V6.73312C89.7297 6.89181 89.2536 8.22937 89.2536 11.2445C89.2536 14.2597 89.7977 15.5973 90.2738 15.688V15.9373ZM98.1178 8.47875C97.0976 8.47875 96.2135 7.61727 96.2135 6.50641C96.2135 5.39556 97.0749 4.53408 98.1178 4.53408C99.2286 4.53408 100.09 5.39556 100.09 6.50641C100.022 7.68528 99.138 8.47875 98.1178 8.47875ZM65.3816 21.1516V20.7662C67.9887 20.5394 69.3489 18.3177 69.3489 11.5619C69.3489 4.51141 68.0794 2.60709 65.3136 2.35771V1.88163C72.0467 1.94964 76.4221 4.64744 76.4221 11.5619C76.4675 17.8417 72.2734 21.0835 65.3816 21.1516ZM64.2707 21.1516H57.3789V1.88163H64.2707V21.1516ZM83.0419 21.1516H77.1022V7.2092L83.0419 6.66511V21.1516ZM130.605 21.4009C127.839 21.4009 125.776 20.1314 125.776 16.7308V8.79613H123.962V6.73312H125.866V3.55925L131.965 1.42822L131.806 6.73312H135.615V8.79613H131.806V16.164C131.806 17.9097 132.509 18.5444 134.096 18.5444C134.731 18.5444 135.683 18.3177 136 18.159V18.6351C135.139 20.1314 133.302 21.4009 130.605 21.4009ZM117.932 21.4009V21.0835C118.884 20.9249 119.677 20.4488 119.677 19.3379C119.677 18.3858 119.133 17.9097 117.614 17.2069L115.71 16.3454C113.964 15.5519 112.378 14.2144 112.378 11.6753C112.378 9.06818 114.917 6.68778 118.476 6.4384V6.75579C117.682 6.8238 116.821 7.23187 116.821 8.34272C116.821 9.3629 117.456 9.83898 118.476 10.3151L121.083 11.4939C122.67 12.1967 124.007 13.7156 124.007 15.7786C124.121 19.2699 122.285 21.2422 117.932 21.4009ZM117.206 21.4009C115.71 21.4009 113.806 21.1742 112.695 20.8568V17.1389C114.191 18.7258 115.869 20.4714 117.206 21.1062V21.4009ZM123.327 10.2924C122.058 8.54676 120.788 7.3679 119.292 6.80113V6.41573C120.72 6.41573 122.375 6.73312 123.327 7.0505V10.2924ZM105.327 21.4009C100.181 21.4009 97.9591 17.683 97.9591 13.8743C97.9591 9.83897 101.133 6.73312 105.259 6.41573V6.73312C104.398 6.95982 103.989 7.84397 103.989 11.8793C103.989 15.2119 105.327 17.0255 108.115 17.0255C109.702 17.0255 111.131 16.6401 111.992 15.9147V16.4588C111.425 18.2271 109.77 21.4009 105.327 21.4009ZM111.833 12.5141H104.692V12.1287L106.665 11.8113C106.665 8.63744 106.279 6.89181 105.712 6.73312V6.41573C110.156 6.66511 111.833 9.8163 111.833 12.5141Z" fill="#878889"/>
</svg>
