<svg width="20" height="20" viewBox="0 0 20 20" fill="none" xmlns="http://www.w3.org/2000/svg">
<g clip-path="url(#clip0_4285_1728)">
<path d="M-0.186522 15.5268C-0.186522 16.3077 0.0712555 16.9718 0.586811 17.5191C1.10237 18.0664 1.72999 18.3398 2.46967 18.3391H16.704C17.4436 18.3391 18.0713 18.0658 18.5868 17.5191C19.1024 16.9725 19.3601 16.3083 19.3601 15.5268V4.19914C19.3601 3.41818 19.0998 2.74644 18.5792 2.1839C18.0586 1.62136 17.4335 1.34009 16.704 1.34009H2.46967C1.74078 1.34009 1.1157 1.62136 0.59443 2.1839C0.0731603 2.74644 -0.187157 3.41818 -0.186522 4.19914V15.5268ZM6.923 13.4801V6.2458C6.923 6.17279 6.94395 6.11564 6.98586 6.07437C7.01697 6.06421 7.043 6.05914 7.06395 6.05914L7.14205 6.07437L13.9544 9.69914C13.9963 9.74104 14.0173 9.7931 14.0173 9.85533C14.0173 9.89723 13.9963 9.93882 13.9544 9.98009L7.14205 13.6048C7.1211 13.6258 7.10014 13.6363 7.07919 13.6363C7.03729 13.6363 7.00618 13.6258 6.98586 13.6048C6.94395 13.5629 6.923 13.5214 6.923 13.4801Z" fill="#131313"/>
</g>
<defs>
<clipPath id="clip0_4285_1728">
<rect width="20" height="20" fill="white"/>
</clipPath>
</defs>
</svg>
